{
    "asset" : {
        "generator" : "Khronos glTF Blender I/O v1.1.46",
        "version" : "2.0"
    },
    "scene" : 0,
    "scenes" : [
        {
            "name" : "Scene",
            "nodes" : [
                0,
                1,
                2,
                3,
                4,
                5,
                6,
                7,
                8,
                9
            ]
        }
    ],
    "nodes" : [
        {
            "name" : "Light",
            "rotation" : [
                0.16907575726509094,
                0.7558803558349609,
                -0.27217137813568115,
                0.570947527885437
            ],
            "translation" : [
                4.076245307922363,
                5.903861999511719,
                -1.0054539442062378
            ]
        },
        {
            "name" : "Camera",
            "rotation" : [
                0.483536034822464,
                0.33687159419059753,
                -0.20870360732078552,
                0.7804827094078064
            ],
            "translation" : [
                7.358891487121582,
                4.958309173583984,
                6.925790786743164
            ]
        },
        {
            "mesh" : 0,
            "name" : "BalconyS",
            "translation" : [
                -2.2252745628356934,
                0.11038067936897278,
                0.31789636611938477
            ]
        },
        {
            "mesh" : 1,
            "name" : "DoorS"
        },
        {
            "mesh" : 2,
            "name" : "FrameS",
            "rotation" : [
                0.7071067690849304,
                0,
                0,
                0.7071067690849304
            ],
            "scale" : [
                0.009999990463256836,
                0.009999990463256836,
                0.009999990463256836
            ],
            "translation" : [
                -2.0453882217407227,
                0,
                0.5270324945449829
            ]
        },
        {
            "mesh" : 3,
            "name" : "InsideS",
            "rotation" : [
                0,
                1,
                0,
                -1.6292068494294654e-07
            ],
            "translation" : [
                0.40772202610969543,
                -0.10789550095796585,
                0.17045536637306213
            ]
        },
        {
            "mesh" : 4,
            "name" : "RoofS",
            "rotation" : [
                0.7071067690849304,
                0,
                0,
                0.7071067690849304
            ]
        },
        {
            "mesh" : 5,
            "name" : "StairS",
            "rotation" : [
                0.7071067690849304,
                0,
                0,
                0.7071067690849304
            ],
            "scale" : [
                0.009999990463256836,
                0.009999990463256836,
                0.009999990463256836
            ],
            "translation" : [
                0.07295882701873779,
                0,
                0.5048755407333374
            ]
        },
        {
            "mesh" : 6,
            "name" : "SupportS",
            "rotation" : [
                0.7071067690849304,
                0,
                0,
                0.7071067690849304
            ],
            "scale" : [
                0.009999990463256836,
                0.009999990463256836,
                0.009999990463256836
            ],
            "translation" : [
                -1.8939218521118164,
                -0.11394080519676208,
                -5.691615104675293
            ]
        },
        {
            "mesh" : 1,
            "name" : "DoorS2",
            "rotation" : [
                0,
                0.9496458172798157,
                0,
                -0.3133253753185272
            ],
            "translation" : [
                0.6804061532020569,
                0,
                -5.786040306091309
            ]
        }
    ],
    "materials" : [
        {
            "doubleSided" : true,
            "emissiveFactor" : [
                0,
                0,
                0
            ],
            "name" : "House",
            "normalTexture" : {
                "index" : 0,
                "texCoord" : 0
            },
            "pbrMetallicRoughness" : {
                "baseColorTexture" : {
                    "index" : 1,
                    "texCoord" : 0
                },
                "metallicFactor" : 0,
                "roughnessFactor" : 0.5
            }
        }
    ],
    "meshes" : [
        {
            "name" : "Balcony.001",
            "primitives" : [
                {
                    "attributes" : {
                        "POSITION" : 0,
                        "NORMAL" : 1,
                        "TANGENT" : 2,
                        "TEXCOORD_0" : 3
                    },
                    "indices" : 4,
                    "material" : 0
                }
            ]
        },
        {
            "name" : "Door.001",
            "primitives" : [
                {
                    "attributes" : {
                        "POSITION" : 5,
                        "NORMAL" : 6,
                        "TANGENT" : 7,
                        "TEXCOORD_0" : 8
                    },
                    "indices" : 9,
                    "material" : 0
                }
            ]
        },
        {
            "name" : "Body11",
            "primitives" : [
                {
                    "attributes" : {
                        "POSITION" : 10,
                        "NORMAL" : 11,
                        "TEXCOORD_0" : 12
                    },
                    "indices" : 13,
                    "material" : 0
                }
            ]
        },
        {
            "name" : "Support.008",
            "primitives" : [
                {
                    "attributes" : {
                        "POSITION" : 14,
                        "NORMAL" : 15,
                        "TANGENT" : 16,
                        "TEXCOORD_0" : 17
                    },
                    "indices" : 18,
                    "material" : 0
                }
            ]
        },
        {
            "name" : "Plane.001",
            "primitives" : [
                {
                    "attributes" : {
                        "POSITION" : 19,
                        "NORMAL" : 20,
                        "TEXCOORD_0" : 21
                    },
                    "indices" : 22,
                    "material" : 0
                }
            ]
        },
        {
            "name" : "RailS.001",
            "primitives" : [
                {
                    "attributes" : {
                        "POSITION" : 23,
                        "NORMAL" : 24,
                        "TANGENT" : 25,
                        "TEXCOORD_0" : 26
                    },
                    "indices" : 27,
                    "material" : 0
                }
            ]
        },
        {
            "name" : "Block.006",
            "primitives" : [
                {
                    "attributes" : {
                        "POSITION" : 28,
                        "NORMAL" : 29,
                        "TANGENT" : 30,
                        "TEXCOORD_0" : 31
                    },
                    "indices" : 32,
                    "material" : 0
                }
            ]
        }
    ],
    "textures" : [
        {
            "source" : 0
        },
        {
            "source" : 1
        }
    ],
    "images" : [
        {
            "mimeType" : "image/jpeg",
            "name" : "House_normal",
            "uri" : "House_normal.jpg"
        },
        {
            "mimeType" : "image/jpeg",
            "name" : "house_dif",
            "uri" : "house_dif.jpg"
        }
    ],
    "accessors" : [
        {
            "bufferView" : 0,
            "componentType" : 5126,
            "count" : 3925,
            "max" : [
                4.042081832885742,
                0.662499725818634,
                -6.602077484130859
            ],
            "min" : [
                0.9420846700668335,
                -0.38749927282333374,
                -8.15207576751709
            ],
            "type" : "VEC3"
        },
        {
            "bufferView" : 1,
            "componentType" : 5126,
            "count" : 3925,
            "type" : "VEC3"
        },
        {
            "bufferView" : 2,
            "componentType" : 5126,
            "count" : 3925,
            "type" : "VEC4"
        },
        {
            "bufferView" : 3,
            "componentType" : 5126,
            "count" : 3925,
            "type" : "VEC2"
        },
        {
            "bufferView" : 4,
            "componentType" : 5123,
            "count" : 3942,
            "type" : "SCALAR"
        },
        {
            "bufferView" : 5,
            "componentType" : 5126,
            "count" : 926,
            "max" : [
                -0.12355387210845947,
                2.019878387451172,
                0.6148006916046143
            ],
            "min" : [
                -0.8899046182632446,
                0.15200002491474152,
                0.41151660680770874
            ],
            "type" : "VEC3"
        },
        {
            "bufferView" : 6,
            "componentType" : 5126,
            "count" : 926,
            "type" : "VEC3"
        },
        {
            "bufferView" : 7,
            "componentType" : 5126,
            "count" : 926,
            "type" : "VEC4"
        },
        {
            "bufferView" : 8,
            "componentType" : 5126,
            "count" : 926,
            "type" : "VEC2"
        },
        {
            "bufferView" : 9,
            "componentType" : 5123,
            "count" : 948,
            "type" : "SCALAR"
        },
        {
            "bufferView" : 10,
            "componentType" : 5126,
            "count" : 555,
            "max" : [
                440,
                14.000001907348633,
                0.08023189753293991
            ],
            "min" : [
                0,
                -688,
                -406.2115478515625
            ],
            "type" : "VEC3"
        },
        {
            "bufferView" : 11,
            "componentType" : 5126,
            "count" : 555,
            "type" : "VEC3"
        },
        {
            "bufferView" : 12,
            "componentType" : 5126,
            "count" : 555,
            "type" : "VEC2"
        },
        {
            "bufferView" : 13,
            "componentType" : 5123,
            "count" : 1056,
            "type" : "SCALAR"
        },
        {
            "bufferView" : 14,
            "componentType" : 5126,
            "count" : 344,
            "max" : [
                2.7663137912750244,
                4.245594501495361,
                6.393876552581787
            ],
            "min" : [
                -2.3221325874328613,
                0.21918022632598877,
                -0.35298824310302734
            ],
            "type" : "VEC3"
        },
        {
            "bufferView" : 15,
            "componentType" : 5126,
            "count" : 344,
            "type" : "VEC3"
        },
        {
            "bufferView" : 16,
            "componentType" : 5126,
            "count" : 344,
            "type" : "VEC4"
        },
        {
            "bufferView" : 17,
            "componentType" : 5126,
            "count" : 344,
            "type" : "VEC2"
        },
        {
            "bufferView" : 18,
            "componentType" : 5123,
            "count" : 360,
            "type" : "SCALAR"
        },
        {
            "bufferView" : 19,
            "componentType" : 5126,
            "count" : 54,
            "max" : [
                2.979586601257324,
                0.6963092684745789,
                -2.2017672061920166
            ],
            "min" : [
                -2.5877928733825684,
                -6.4055609703063965,
                -4.226134777069092
            ],
            "type" : "VEC3"
        },
        {
            "bufferView" : 20,
            "componentType" : 5126,
            "count" : 54,
            "type" : "VEC3"
        },
        {
            "bufferView" : 21,
            "componentType" : 5126,
            "count" : 54,
            "type" : "VEC2"
        },
        {
            "bufferView" : 22,
            "componentType" : 5123,
            "count" : 96,
            "type" : "SCALAR"
        },
        {
            "bufferView" : 23,
            "componentType" : 5126,
            "count" : 374,
            "max" : [
                5,
                115.22125244140625,
                18.418466567993164
            ],
            "min" : [
                -124.90573120117188,
                4.607050895690918,
                -87.29289245605469
            ],
            "type" : "VEC3"
        },
        {
            "bufferView" : 24,
            "componentType" : 5126,
            "count" : 374,
            "type" : "VEC3"
        },
        {
            "bufferView" : 25,
            "componentType" : 5126,
            "count" : 374,
            "type" : "VEC4"
        },
        {
            "bufferView" : 26,
            "componentType" : 5126,
            "count" : 374,
            "type" : "VEC2"
        },
        {
            "bufferView" : 27,
            "componentType" : 5123,
            "count" : 468,
            "type" : "SCALAR"
        },
        {
            "bufferView" : 28,
            "componentType" : 5126,
            "count" : 144,
            "max" : [
                416.24444580078125,
                622.24951171875,
                18
            ],
            "min" : [
                -1.52587890625e-05,
                -55,
                -12.00002670288086
            ],
            "type" : "VEC3"
        },
        {
            "bufferView" : 29,
            "componentType" : 5126,
            "count" : 144,
            "type" : "VEC3"
        },
        {
            "bufferView" : 30,
            "componentType" : 5126,
            "count" : 144,
            "type" : "VEC4"
        },
        {
            "bufferView" : 31,
            "componentType" : 5126,
            "count" : 144,
            "type" : "VEC2"
        },
        {
            "bufferView" : 32,
            "componentType" : 5123,
            "count" : 216,
            "type" : "SCALAR"
        }
    ],
    "bufferViews" : [
        {
            "buffer" : 0,
            "byteLength" : 47100,
            "byteOffset" : 0
        },
        {
            "buffer" : 0,
            "byteLength" : 47100,
            "byteOffset" : 47100
        },
        {
            "buffer" : 0,
            "byteLength" : 62800,
            "byteOffset" : 94200
        },
        {
            "buffer" : 0,
            "byteLength" : 31400,
            "byteOffset" : 157000
        },
        {
            "buffer" : 0,
            "byteLength" : 7884,
            "byteOffset" : 188400
        },
        {
            "buffer" : 0,
            "byteLength" : 11112,
            "byteOffset" : 196284
        },
        {
            "buffer" : 0,
            "byteLength" : 11112,
            "byteOffset" : 207396
        },
        {
            "buffer" : 0,
            "byteLength" : 14816,
            "byteOffset" : 218508
        },
        {
            "buffer" : 0,
            "byteLength" : 7408,
            "byteOffset" : 233324
        },
        {
            "buffer" : 0,
            "byteLength" : 1896,
            "byteOffset" : 240732
        },
        {
            "buffer" : 0,
            "byteLength" : 6660,
            "byteOffset" : 242628
        },
        {
            "buffer" : 0,
            "byteLength" : 6660,
            "byteOffset" : 249288
        },
        {
            "buffer" : 0,
            "byteLength" : 4440,
            "byteOffset" : 255948
        },
        {
            "buffer" : 0,
            "byteLength" : 2112,
            "byteOffset" : 260388
        },
        {
            "buffer" : 0,
            "byteLength" : 4128,
            "byteOffset" : 262500
        },
        {
            "buffer" : 0,
            "byteLength" : 4128,
            "byteOffset" : 266628
        },
        {
            "buffer" : 0,
            "byteLength" : 5504,
            "byteOffset" : 270756
        },
        {
            "buffer" : 0,
            "byteLength" : 2752,
            "byteOffset" : 276260
        },
        {
            "buffer" : 0,
            "byteLength" : 720,
            "byteOffset" : 279012
        },
        {
            "buffer" : 0,
            "byteLength" : 648,
            "byteOffset" : 279732
        },
        {
            "buffer" : 0,
            "byteLength" : 648,
            "byteOffset" : 280380
        },
        {
            "buffer" : 0,
            "byteLength" : 432,
            "byteOffset" : 281028
        },
        {
            "buffer" : 0,
            "byteLength" : 192,
            "byteOffset" : 281460
        },
        {
            "buffer" : 0,
            "byteLength" : 4488,
            "byteOffset" : 281652
        },
        {
            "buffer" : 0,
            "byteLength" : 4488,
            "byteOffset" : 286140
        },
        {
            "buffer" : 0,
            "byteLength" : 5984,
            "byteOffset" : 290628
        },
        {
            "buffer" : 0,
            "byteLength" : 2992,
            "byteOffset" : 296612
        },
        {
            "buffer" : 0,
            "byteLength" : 936,
            "byteOffset" : 299604
        },
        {
            "buffer" : 0,
            "byteLength" : 1728,
            "byteOffset" : 300540
        },
        {
            "buffer" : 0,
            "byteLength" : 1728,
            "byteOffset" : 302268
        },
        {
            "buffer" : 0,
            "byteLength" : 2304,
            "byteOffset" : 303996
        },
        {
            "buffer" : 0,
            "byteLength" : 1152,
            "byteOffset" : 306300
        },
        {
            "buffer" : 0,
            "byteLength" : 432,
            "byteOffset" : 307452
        }
    ],
    "buffers" : [
        {
            "byteLength" : 307884,
            "uri" : "cabin_lp.bin"
        }
    ]
}
