{
    "asset" : {
        "generator" : "Khronos glTF Blender I/O v0.9.36",
        "version" : "2.0"
    },
    "scene" : 0,
    "scenes" : [
        {
            "name" : "Scene",
            "nodes" : [
                0,
                1,
                2,
                3,
                4,
                5,
                6,
                7,
                8,
                9,
                10
            ]
        }
    ],
    "nodes" : [
        {
            "mesh" : 0,
            "name" : "LampLight"
        },
        {
            "name" : "LightPos",
            "translation" : [
                0.8037766218185425,
                1.8904446363449097,
                -0.8062571287155151
            ]
        },
        {
            "mesh" : 1,
            "name" : "Wall_1"
        },
        {
            "mesh" : 2,
            "name" : "Wall_2"
        },
        {
            "mesh" : 3,
            "name" : "Tower"
        },
        {
            "mesh" : 4,
            "name" : "LightPost"
        },
        {
            "mesh" : 5,
            "name" : "Corner"
        },
        {
            "name" : "Lamp",
            "rotation" : [
                0.16907575726509094,
                0.7558803558349609,
                -0.27217137813568115,
                0.570947527885437
            ],
            "translation" : [
                4.076245307922363,
                5.903861999511719,
                -1.0054539442062378
            ]
        },
        {
            "name" : "Camera",
            "rotation" : [
                0.483536034822464,
                0.33687159419059753,
                -0.20870360732078552,
                0.7804827094078064
            ],
            "translation" : [
                7.481131553649902,
                5.34366512298584,
                6.5076398849487305
            ]
        },
        {
            "mesh" : 6,
            "name" : "Fence"
        },
        {
            "mesh" : 7,
            "name" : "Floor"
        }
    ],
    "materials" : [
        {
            "doubleSided" : true,
            "emissiveFactor" : [
                1,
                0.8395931720733643,
                0.043872520327568054
            ],
            "name" : "Light",
            "pbrMetallicRoughness" : {
                "baseColorFactor" : [
                    0.0030059912241995335,
                    0.002844284288585186,
                    0.0009395147208124399,
                    1
                ],
                "metallicFactor" : 0,
                "roughnessFactor" : 0.5
            }
        },
        {
            "doubleSided" : true,
            "name" : "Wall",
            "normalTexture" : {
                "index" : 0,
                "texCoord" : 0
            },
            "pbrMetallicRoughness" : {
                "baseColorTexture" : {
                    "index" : 1,
                    "texCoord" : 0
                },
                "metallicFactor" : 0,
                "metallicRoughnessTexture" : {
                    "index" : 2,
                    "texCoord" : 0
                }
            }
        },
        {
            "doubleSided" : true,
            "name" : "Aluminium",
            "pbrMetallicRoughness" : {
                "baseColorFactor" : [
                    0.4095073640346527,
                    0.4095073640346527,
                    0.4095073640346527,
                    1
                ],
                "metallicFactor" : 1,
                "roughnessFactor" : 0.30000001192092896
            }
        },
        {
            "doubleSided" : true,
            "name" : "Paved",
            "normalTexture" : {
                "index" : 3,
                "texCoord" : 0
            },
            "pbrMetallicRoughness" : {
                "baseColorTexture" : {
                    "index" : 4,
                    "texCoord" : 0
                },
                "metallicFactor" : 0,
                "metallicRoughnessTexture" : {
                    "index" : 5,
                    "texCoord" : 0
                }
            }
        }
    ],
    "meshes" : [
        {
            "name" : "Sphere",
            "primitives" : [
                {
                    "attributes" : {
                        "POSITION" : 0,
                        "NORMAL" : 1,
                        "TANGENT" : 2,
                        "TEXCOORD_0" : 3
                    },
                    "indices" : 4,
                    "material" : 0
                }
            ]
        },
        {
            "name" : "Wall 1",
            "primitives" : [
                {
                    "attributes" : {
                        "POSITION" : 5,
                        "NORMAL" : 6,
                        "TANGENT" : 7,
                        "TEXCOORD_0" : 8
                    },
                    "indices" : 9,
                    "material" : 1
                }
            ]
        },
        {
            "name" : "Wall 2",
            "primitives" : [
                {
                    "attributes" : {
                        "POSITION" : 10,
                        "NORMAL" : 11,
                        "TANGENT" : 12,
                        "TEXCOORD_0" : 13
                    },
                    "indices" : 14,
                    "material" : 1
                }
            ]
        },
        {
            "name" : "Tower v3",
            "primitives" : [
                {
                    "attributes" : {
                        "POSITION" : 15,
                        "NORMAL" : 16,
                        "TANGENT" : 17,
                        "TEXCOORD_0" : 18
                    },
                    "indices" : 19,
                    "material" : 1
                }
            ]
        },
        {
            "name" : "Lamp",
            "primitives" : [
                {
                    "attributes" : {
                        "POSITION" : 20,
                        "NORMAL" : 21
                    },
                    "indices" : 22,
                    "material" : 2
                }
            ]
        },
        {
            "name" : "Corner",
            "primitives" : [
                {
                    "attributes" : {
                        "POSITION" : 23,
                        "NORMAL" : 24
                    },
                    "indices" : 25,
                    "material" : 2
                }
            ]
        },
        {
            "name" : "Isle.001",
            "primitives" : [
                {
                    "attributes" : {
                        "POSITION" : 26,
                        "NORMAL" : 27
                    },
                    "indices" : 28,
                    "material" : 2
                }
            ]
        },
        {
            "name" : "Cube",
            "primitives" : [
                {
                    "attributes" : {
                        "POSITION" : 29,
                        "NORMAL" : 30,
                        "TANGENT" : 31,
                        "TEXCOORD_0" : 32
                    },
                    "indices" : 33,
                    "material" : 3
                }
            ]
        }
    ],
    "textures" : [
        {
            "source" : 0
        },
        {
            "source" : 1
        },
        {
            "source" : 2
        },
        {
            "source" : 3
        },
        {
            "source" : 4
        },
        {
            "source" : 5
        }
    ],
    "images" : [
        {
            "mimeType" : "image/jpeg",
            "name" : "Bricks18_nrm",
            "uri" : "Bricks18_nrm.jpg"
        },
        {
            "mimeType" : "image/jpeg",
            "name" : "Bricks18_col",
            "uri" : "Bricks18_col.jpg"
        },
        {
            "mimeType" : "image/jpeg",
            "name" : "Bricks18_rgh",
            "uri" : "Bricks18_rgh.jpg"
        },
        {
            "mimeType" : "image/jpeg",
            "name" : "PavingStones36_nrm",
            "uri" : "PavingStones36_nrm.jpg"
        },
        {
            "mimeType" : "image/jpeg",
            "name" : "PavingStones36_col",
            "uri" : "PavingStones36_col.jpg"
        },
        {
            "mimeType" : "image/jpeg",
            "name" : "PavingStones36_rgh",
            "uri" : "PavingStones36_rgh.jpg"
        }
    ],
    "accessors" : [
        {
            "bufferView" : 0,
            "componentType" : 5126,
            "count" : 559,
            "max" : [
                0.10759603977203369,
                0.11999976634979248,
                0.13240420818328857
            ],
            "min" : [
                -0.1324039101600647,
                -0.12000024318695068,
                -0.10759586095809937
            ],
            "type" : "VEC3"
        },
        {
            "bufferView" : 1,
            "componentType" : 5126,
            "count" : 559,
            "type" : "VEC3"
        },
        {
            "bufferView" : 2,
            "componentType" : 5126,
            "count" : 559,
            "type" : "VEC4"
        },
        {
            "bufferView" : 3,
            "componentType" : 5126,
            "count" : 559,
            "type" : "VEC2"
        },
        {
            "bufferView" : 4,
            "componentType" : 5123,
            "count" : 2880,
            "type" : "SCALAR"
        },
        {
            "bufferView" : 5,
            "componentType" : 5126,
            "count" : 223,
            "max" : [
                0.4999990463256836,
                1.9999980926513672,
                0.3999992907047272
            ],
            "min" : [
                -0.5,
                -3.4969076523339027e-08,
                -0.4000000059604645
            ],
            "type" : "VEC3"
        },
        {
            "bufferView" : 6,
            "componentType" : 5126,
            "count" : 223,
            "type" : "VEC3"
        },
        {
            "bufferView" : 7,
            "componentType" : 5126,
            "count" : 223,
            "type" : "VEC4"
        },
        {
            "bufferView" : 8,
            "componentType" : 5126,
            "count" : 223,
            "type" : "VEC2"
        },
        {
            "bufferView" : 9,
            "componentType" : 5123,
            "count" : 276,
            "type" : "SCALAR"
        },
        {
            "bufferView" : 10,
            "componentType" : 5126,
            "count" : 280,
            "max" : [
                0.4999990463256836,
                1.9999980926513672,
                0.3999992907047272
            ],
            "min" : [
                -0.5,
                -3.4969076523339027e-08,
                -0.4000000059604645
            ],
            "type" : "VEC3"
        },
        {
            "bufferView" : 11,
            "componentType" : 5126,
            "count" : 280,
            "type" : "VEC3"
        },
        {
            "bufferView" : 12,
            "componentType" : 5126,
            "count" : 280,
            "type" : "VEC4"
        },
        {
            "bufferView" : 13,
            "componentType" : 5126,
            "count" : 280,
            "type" : "VEC2"
        },
        {
            "bufferView" : 14,
            "componentType" : 5123,
            "count" : 336,
            "type" : "SCALAR"
        },
        {
            "bufferView" : 15,
            "componentType" : 5126,
            "count" : 804,
            "max" : [
                0.9806792736053467,
                3.292914867401123,
                0.9947469234466553
            ],
            "min" : [
                -1.011343002319336,
                -1.5735582792331115e-07,
                -0.9947468042373657
            ],
            "type" : "VEC3"
        },
        {
            "bufferView" : 16,
            "componentType" : 5126,
            "count" : 804,
            "type" : "VEC3"
        },
        {
            "bufferView" : 17,
            "componentType" : 5126,
            "count" : 804,
            "type" : "VEC4"
        },
        {
            "bufferView" : 18,
            "componentType" : 5126,
            "count" : 804,
            "type" : "VEC2"
        },
        {
            "bufferView" : 19,
            "componentType" : 5123,
            "count" : 2070,
            "type" : "SCALAR"
        },
        {
            "bufferView" : 20,
            "componentType" : 5126,
            "count" : 2959,
            "max" : [
                0.9933362603187561,
                2.034369945526123,
                0.05500007048249245
            ],
            "min" : [
                -0.055000025779008865,
                0.644473671913147,
                -1.0058002471923828
            ],
            "type" : "VEC3"
        },
        {
            "bufferView" : 21,
            "componentType" : 5126,
            "count" : 2959,
            "type" : "VEC3"
        },
        {
            "bufferView" : 22,
            "componentType" : 5123,
            "count" : 15546,
            "type" : "SCALAR"
        },
        {
            "bufferView" : 23,
            "componentType" : 5126,
            "count" : 1911,
            "max" : [
                0.07500003278255463,
                0.7105002999305725,
                0.07500003278255463
            ],
            "min" : [
                -0.07500003278255463,
                -2.2948489775131975e-09,
                -0.07500003278255463
            ],
            "type" : "VEC3"
        },
        {
            "bufferView" : 24,
            "componentType" : 5126,
            "count" : 1911,
            "type" : "VEC3"
        },
        {
            "bufferView" : 25,
            "componentType" : 5123,
            "count" : 2268,
            "type" : "SCALAR"
        },
        {
            "bufferView" : 26,
            "componentType" : 5126,
            "count" : 11868,
            "max" : [
                0.9397887587547302,
                0.74540776014328,
                0.030000057071447372
            ],
            "min" : [
                0.03978839889168739,
                0.05600002780556679,
                -0.02999996952712536
            ],
            "type" : "VEC3"
        },
        {
            "bufferView" : 27,
            "componentType" : 5126,
            "count" : 11868,
            "type" : "VEC3"
        },
        {
            "bufferView" : 28,
            "componentType" : 5123,
            "count" : 13500,
            "type" : "SCALAR"
        },
        {
            "bufferView" : 29,
            "componentType" : 5126,
            "count" : 24,
            "max" : [
                1,
                1.1175870895385742e-08,
                0
            ],
            "min" : [
                0,
                -0.10000000894069672,
                -1
            ],
            "type" : "VEC3"
        },
        {
            "bufferView" : 30,
            "componentType" : 5126,
            "count" : 24,
            "type" : "VEC3"
        },
        {
            "bufferView" : 31,
            "componentType" : 5126,
            "count" : 24,
            "type" : "VEC4"
        },
        {
            "bufferView" : 32,
            "componentType" : 5126,
            "count" : 24,
            "type" : "VEC2"
        },
        {
            "bufferView" : 33,
            "componentType" : 5123,
            "count" : 36,
            "type" : "SCALAR"
        }
    ],
    "bufferViews" : [
        {
            "buffer" : 0,
            "byteLength" : 6708,
            "byteOffset" : 0
        },
        {
            "buffer" : 0,
            "byteLength" : 6708,
            "byteOffset" : 6708
        },
        {
            "buffer" : 0,
            "byteLength" : 8944,
            "byteOffset" : 13416
        },
        {
            "buffer" : 0,
            "byteLength" : 4472,
            "byteOffset" : 22360
        },
        {
            "buffer" : 0,
            "byteLength" : 5760,
            "byteOffset" : 26832
        },
        {
            "buffer" : 0,
            "byteLength" : 2676,
            "byteOffset" : 32592
        },
        {
            "buffer" : 0,
            "byteLength" : 2676,
            "byteOffset" : 35268
        },
        {
            "buffer" : 0,
            "byteLength" : 3568,
            "byteOffset" : 37944
        },
        {
            "buffer" : 0,
            "byteLength" : 1784,
            "byteOffset" : 41512
        },
        {
            "buffer" : 0,
            "byteLength" : 552,
            "byteOffset" : 43296
        },
        {
            "buffer" : 0,
            "byteLength" : 3360,
            "byteOffset" : 43848
        },
        {
            "buffer" : 0,
            "byteLength" : 3360,
            "byteOffset" : 47208
        },
        {
            "buffer" : 0,
            "byteLength" : 4480,
            "byteOffset" : 50568
        },
        {
            "buffer" : 0,
            "byteLength" : 2240,
            "byteOffset" : 55048
        },
        {
            "buffer" : 0,
            "byteLength" : 672,
            "byteOffset" : 57288
        },
        {
            "buffer" : 0,
            "byteLength" : 9648,
            "byteOffset" : 57960
        },
        {
            "buffer" : 0,
            "byteLength" : 9648,
            "byteOffset" : 67608
        },
        {
            "buffer" : 0,
            "byteLength" : 12864,
            "byteOffset" : 77256
        },
        {
            "buffer" : 0,
            "byteLength" : 6432,
            "byteOffset" : 90120
        },
        {
            "buffer" : 0,
            "byteLength" : 4140,
            "byteOffset" : 96552
        },
        {
            "buffer" : 0,
            "byteLength" : 35508,
            "byteOffset" : 100692
        },
        {
            "buffer" : 0,
            "byteLength" : 35508,
            "byteOffset" : 136200
        },
        {
            "buffer" : 0,
            "byteLength" : 31092,
            "byteOffset" : 171708
        },
        {
            "buffer" : 0,
            "byteLength" : 22932,
            "byteOffset" : 202800
        },
        {
            "buffer" : 0,
            "byteLength" : 22932,
            "byteOffset" : 225732
        },
        {
            "buffer" : 0,
            "byteLength" : 4536,
            "byteOffset" : 248664
        },
        {
            "buffer" : 0,
            "byteLength" : 142416,
            "byteOffset" : 253200
        },
        {
            "buffer" : 0,
            "byteLength" : 142416,
            "byteOffset" : 395616
        },
        {
            "buffer" : 0,
            "byteLength" : 27000,
            "byteOffset" : 538032
        },
        {
            "buffer" : 0,
            "byteLength" : 288,
            "byteOffset" : 565032
        },
        {
            "buffer" : 0,
            "byteLength" : 288,
            "byteOffset" : 565320
        },
        {
            "buffer" : 0,
            "byteLength" : 384,
            "byteOffset" : 565608
        },
        {
            "buffer" : 0,
            "byteLength" : 192,
            "byteOffset" : 565992
        },
        {
            "buffer" : 0,
            "byteLength" : 72,
            "byteOffset" : 566184
        }
    ],
    "buffers" : [
        {
            "byteLength" : 566256,
            "uri" : "Fence.bin"
        }
    ]
}
