{
    "asset" : {
        "generator" : "Khronos glTF Blender I/O v1.1.46",
        "version" : "2.0"
    },
    "scene" : 0,
    "scenes" : [
        {
            "name" : "Scene",
            "nodes" : [
                0,
                1,
                2,
                3,
                4,
                5,
                6
            ]
        },
        {
            "name" : "Windows",
            "nodes" : [
                7
            ]
        }
    ],
    "nodes" : [
        {
            "name" : "Light",
            "rotation" : [
                0.16907575726509094,
                0.7558803558349609,
                -0.27217137813568115,
                0.570947527885437
            ],
            "translation" : [
                4.076245307922363,
                5.903861999511719,
                -1.0054539442062378
            ]
        },
        {
            "name" : "Camera",
            "rotation" : [
                0.483536034822464,
                0.33687159419059753,
                -0.20870360732078552,
                0.7804827094078064
            ],
            "translation" : [
                7.358891487121582,
                4.958309173583984,
                6.925790786743164
            ]
        },
        {
            "mesh" : 0,
            "name" : "MedievalHouse1"
        },
        {
            "mesh" : 1,
            "name" : "Floor"
        },
        {
            "mesh" : 2,
            "name" : "Mat"
        },
        {
            "mesh" : 3,
            "name" : "Windows"
        },
        {
            "mesh" : 4,
            "name" : "Doors"
        },
        {
            "mesh" : 5,
            "name" : "Glasses",
            "rotation" : [
                0.7071068286895752,
                0,
                0,
                0.7071067094802856
            ],
            "scale" : [
                0.009999990463256836,
                0.009999990463256836,
                0.009999990463256836
            ]
        }
    ],
    "materials" : [
        {
            "doubleSided" : true,
            "emissiveFactor" : [
                0,
                0,
                0
            ],
            "name" : "Walls",
            "pbrMetallicRoughness" : {
                "baseColorTexture" : {
                    "index" : 0,
                    "texCoord" : 0
                },
                "metallicFactor" : 0,
                "roughnessFactor" : 0.8945907354354858
            }
        },
        {
            "doubleSided" : true,
            "emissiveFactor" : [
                0,
                0,
                0
            ],
            "name" : "Roof",
            "pbrMetallicRoughness" : {
                "baseColorTexture" : {
                    "index" : 1,
                    "texCoord" : 0
                },
                "metallicFactor" : 0,
                "roughnessFactor" : 0.8945907354354858
            }
        },
        {
            "doubleSided" : true,
            "emissiveFactor" : [
                0,
                0,
                0
            ],
            "name" : "Mat",
            "pbrMetallicRoughness" : {
                "baseColorTexture" : {
                    "index" : 2,
                    "texCoord" : 0
                },
                "metallicFactor" : 0,
                "roughnessFactor" : 0.7727272510528564
            }
        },
        {
            "doubleSided" : true,
            "emissiveFactor" : [
                0,
                0,
                0
            ],
            "name" : "_Wooden_doorMat",
            "pbrMetallicRoughness" : {
                "baseColorFactor" : [
                    0.5881999731063843,
                    0.7843000292778015,
                    0.8118000030517578,
                    1
                ],
                "metallicFactor" : 0,
                "roughnessFactor" : 0.820494532585144
            }
        }
    ],
    "meshes" : [
        {
            "name" : "MedievalHouse1",
            "primitives" : [
                {
                    "attributes" : {
                        "POSITION" : 0,
                        "NORMAL" : 1,
                        "TANGENT" : 2,
                        "TEXCOORD_0" : 3
                    },
                    "indices" : 4,
                    "material" : 0
                },
                {
                    "attributes" : {
                        "POSITION" : 5,
                        "NORMAL" : 6,
                        "TANGENT" : 7,
                        "TEXCOORD_0" : 8
                    },
                    "indices" : 9,
                    "material" : 1
                }
            ]
        },
        {
            "name" : "MedievalHouse1.003",
            "primitives" : [
                {
                    "attributes" : {
                        "POSITION" : 10,
                        "NORMAL" : 11,
                        "TANGENT" : 12,
                        "TEXCOORD_0" : 13
                    },
                    "indices" : 14,
                    "material" : 0
                }
            ]
        },
        {
            "name" : "Plane",
            "primitives" : [
                {
                    "attributes" : {
                        "POSITION" : 15,
                        "NORMAL" : 16,
                        "TANGENT" : 17,
                        "TEXCOORD_0" : 18
                    },
                    "indices" : 19,
                    "material" : 2
                }
            ]
        },
        {
            "name" : "Windows",
            "primitives" : [
                {
                    "attributes" : {
                        "POSITION" : 20,
                        "NORMAL" : 21,
                        "TANGENT" : 22,
                        "TEXCOORD_0" : 23
                    },
                    "indices" : 24,
                    "material" : 0
                }
            ]
        },
        {
            "name" : "MedievalHouse1.002",
            "primitives" : [
                {
                    "attributes" : {
                        "POSITION" : 25,
                        "NORMAL" : 26,
                        "TANGENT" : 27,
                        "TEXCOORD_0" : 28
                    },
                    "indices" : 29,
                    "material" : 0
                }
            ]
        },
        {
            "name" : "MedievalHouse1.001",
            "primitives" : [
                {
                    "attributes" : {
                        "POSITION" : 30,
                        "NORMAL" : 31,
                        "TANGENT" : 32,
                        "TEXCOORD_0" : 33
                    },
                    "indices" : 34,
                    "material" : 3
                }
            ]
        }
    ],
    "textures" : [
        {
            "source" : 0
        },
        {
            "source" : 1
        },
        {
            "source" : 2
        }
    ],
    "images" : [
        {
            "mimeType" : "image/png",
            "name" : "wall",
            "uri" : "wall.png"
        },
        {
            "mimeType" : "image/png",
            "name" : "roof",
            "uri" : "roof.png"
        },
        {
            "mimeType" : "image/png",
            "name" : "sushi-mat",
            "uri" : "sushi-mat.png"
        }
    ],
    "accessors" : [
        {
            "bufferView" : 0,
            "componentType" : 5126,
            "count" : 627,
            "max" : [
                2.499997615814209,
                4.987736701965332,
                3.49999737739563
            ],
            "min" : [
                -2.499997615814209,
                0.015915414318442345,
                -3.4999966621398926
            ],
            "type" : "VEC3"
        },
        {
            "bufferView" : 1,
            "componentType" : 5126,
            "count" : 627,
            "type" : "VEC3"
        },
        {
            "bufferView" : 2,
            "componentType" : 5126,
            "count" : 627,
            "type" : "VEC4"
        },
        {
            "bufferView" : 3,
            "componentType" : 5126,
            "count" : 627,
            "type" : "VEC2"
        },
        {
            "bufferView" : 4,
            "componentType" : 5123,
            "count" : 1875,
            "type" : "SCALAR"
        },
        {
            "bufferView" : 5,
            "componentType" : 5126,
            "count" : 271,
            "max" : [
                2.999997138977051,
                5.0877366065979,
                3.6999971866607666
            ],
            "min" : [
                -2.999997138977051,
                2.518204927444458,
                -3.699995994567871
            ],
            "type" : "VEC3"
        },
        {
            "bufferView" : 6,
            "componentType" : 5126,
            "count" : 271,
            "type" : "VEC3"
        },
        {
            "bufferView" : 7,
            "componentType" : 5126,
            "count" : 271,
            "type" : "VEC4"
        },
        {
            "bufferView" : 8,
            "componentType" : 5126,
            "count" : 271,
            "type" : "VEC2"
        },
        {
            "bufferView" : 9,
            "componentType" : 5123,
            "count" : 471,
            "type" : "SCALAR"
        },
        {
            "bufferView" : 10,
            "componentType" : 5126,
            "count" : 60,
            "max" : [
                2.499997615814209,
                0.21591657400131226,
                3.4999966621398926
            ],
            "min" : [
                -2.499997615814209,
                0.015915414318442345,
                -3.4999966621398926
            ],
            "type" : "VEC3"
        },
        {
            "bufferView" : 11,
            "componentType" : 5126,
            "count" : 60,
            "type" : "VEC3"
        },
        {
            "bufferView" : 12,
            "componentType" : 5126,
            "count" : 60,
            "type" : "VEC4"
        },
        {
            "bufferView" : 13,
            "componentType" : 5126,
            "count" : 60,
            "type" : "VEC2"
        },
        {
            "bufferView" : 14,
            "componentType" : 5123,
            "count" : 144,
            "type" : "SCALAR"
        },
        {
            "bufferView" : 15,
            "componentType" : 5126,
            "count" : 28,
            "max" : [
                1.9242491722106934,
                0.24989192187786102,
                0.11997342109680176
            ],
            "min" : [
                -1.9046931266784668,
                0.22989192605018616,
                -2.3282976150512695
            ],
            "type" : "VEC3"
        },
        {
            "bufferView" : 16,
            "componentType" : 5126,
            "count" : 28,
            "type" : "VEC3"
        },
        {
            "bufferView" : 17,
            "componentType" : 5126,
            "count" : 28,
            "type" : "VEC4"
        },
        {
            "bufferView" : 18,
            "componentType" : 5126,
            "count" : 28,
            "type" : "VEC2"
        },
        {
            "bufferView" : 19,
            "componentType" : 5123,
            "count" : 48,
            "type" : "SCALAR"
        },
        {
            "bufferView" : 20,
            "componentType" : 5126,
            "count" : 1360,
            "max" : [
                2.460374593734741,
                2.212250232696533,
                3.484581232070923
            ],
            "min" : [
                -2.4626235961914062,
                1.0122504234313965,
                -2.1686246395111084
            ],
            "type" : "VEC3"
        },
        {
            "bufferView" : 21,
            "componentType" : 5126,
            "count" : 1360,
            "type" : "VEC3"
        },
        {
            "bufferView" : 22,
            "componentType" : 5126,
            "count" : 1360,
            "type" : "VEC4"
        },
        {
            "bufferView" : 23,
            "componentType" : 5126,
            "count" : 1360,
            "type" : "VEC2"
        },
        {
            "bufferView" : 24,
            "componentType" : 5123,
            "count" : 2160,
            "type" : "SCALAR"
        },
        {
            "bufferView" : 25,
            "componentType" : 5126,
            "count" : 7256,
            "max" : [
                1.5761674642562866,
                2.1991772651672363,
                3.5425069332122803
            ],
            "min" : [
                0.23916177451610565,
                0.1398772895336151,
                -3.514284372329712
            ],
            "type" : "VEC3"
        },
        {
            "bufferView" : 26,
            "componentType" : 5126,
            "count" : 7256,
            "type" : "VEC3"
        },
        {
            "bufferView" : 27,
            "componentType" : 5126,
            "count" : 7256,
            "type" : "VEC4"
        },
        {
            "bufferView" : 28,
            "componentType" : 5126,
            "count" : 7256,
            "type" : "VEC2"
        },
        {
            "bufferView" : 29,
            "componentType" : 5123,
            "count" : 25164,
            "type" : "SCALAR"
        },
        {
            "bufferView" : 30,
            "componentType" : 5126,
            "count" : 120,
            "max" : [
                241.53770446777344,
                343.9584045410156,
                -107.31700134277344
            ],
            "min" : [
                -241.76260375976562,
                -210.77090454101562,
                -215.13340759277344
            ],
            "type" : "VEC3"
        },
        {
            "bufferView" : 31,
            "componentType" : 5126,
            "count" : 120,
            "type" : "VEC3"
        },
        {
            "bufferView" : 32,
            "componentType" : 5126,
            "count" : 120,
            "type" : "VEC4"
        },
        {
            "bufferView" : 33,
            "componentType" : 5126,
            "count" : 120,
            "type" : "VEC2"
        },
        {
            "bufferView" : 34,
            "componentType" : 5123,
            "count" : 300,
            "type" : "SCALAR"
        }
    ],
    "bufferViews" : [
        {
            "buffer" : 0,
            "byteLength" : 7524,
            "byteOffset" : 0
        },
        {
            "buffer" : 0,
            "byteLength" : 7524,
            "byteOffset" : 7524
        },
        {
            "buffer" : 0,
            "byteLength" : 10032,
            "byteOffset" : 15048
        },
        {
            "buffer" : 0,
            "byteLength" : 5016,
            "byteOffset" : 25080
        },
        {
            "buffer" : 0,
            "byteLength" : 3750,
            "byteOffset" : 30096
        },
        {
            "buffer" : 0,
            "byteLength" : 3252,
            "byteOffset" : 33848
        },
        {
            "buffer" : 0,
            "byteLength" : 3252,
            "byteOffset" : 37100
        },
        {
            "buffer" : 0,
            "byteLength" : 4336,
            "byteOffset" : 40352
        },
        {
            "buffer" : 0,
            "byteLength" : 2168,
            "byteOffset" : 44688
        },
        {
            "buffer" : 0,
            "byteLength" : 942,
            "byteOffset" : 46856
        },
        {
            "buffer" : 0,
            "byteLength" : 720,
            "byteOffset" : 47800
        },
        {
            "buffer" : 0,
            "byteLength" : 720,
            "byteOffset" : 48520
        },
        {
            "buffer" : 0,
            "byteLength" : 960,
            "byteOffset" : 49240
        },
        {
            "buffer" : 0,
            "byteLength" : 480,
            "byteOffset" : 50200
        },
        {
            "buffer" : 0,
            "byteLength" : 288,
            "byteOffset" : 50680
        },
        {
            "buffer" : 0,
            "byteLength" : 336,
            "byteOffset" : 50968
        },
        {
            "buffer" : 0,
            "byteLength" : 336,
            "byteOffset" : 51304
        },
        {
            "buffer" : 0,
            "byteLength" : 448,
            "byteOffset" : 51640
        },
        {
            "buffer" : 0,
            "byteLength" : 224,
            "byteOffset" : 52088
        },
        {
            "buffer" : 0,
            "byteLength" : 96,
            "byteOffset" : 52312
        },
        {
            "buffer" : 0,
            "byteLength" : 16320,
            "byteOffset" : 52408
        },
        {
            "buffer" : 0,
            "byteLength" : 16320,
            "byteOffset" : 68728
        },
        {
            "buffer" : 0,
            "byteLength" : 21760,
            "byteOffset" : 85048
        },
        {
            "buffer" : 0,
            "byteLength" : 10880,
            "byteOffset" : 106808
        },
        {
            "buffer" : 0,
            "byteLength" : 4320,
            "byteOffset" : 117688
        },
        {
            "buffer" : 0,
            "byteLength" : 87072,
            "byteOffset" : 122008
        },
        {
            "buffer" : 0,
            "byteLength" : 87072,
            "byteOffset" : 209080
        },
        {
            "buffer" : 0,
            "byteLength" : 116096,
            "byteOffset" : 296152
        },
        {
            "buffer" : 0,
            "byteLength" : 58048,
            "byteOffset" : 412248
        },
        {
            "buffer" : 0,
            "byteLength" : 50328,
            "byteOffset" : 470296
        },
        {
            "buffer" : 0,
            "byteLength" : 1440,
            "byteOffset" : 520624
        },
        {
            "buffer" : 0,
            "byteLength" : 1440,
            "byteOffset" : 522064
        },
        {
            "buffer" : 0,
            "byteLength" : 1920,
            "byteOffset" : 523504
        },
        {
            "buffer" : 0,
            "byteLength" : 960,
            "byteOffset" : 525424
        },
        {
            "buffer" : 0,
            "byteLength" : 600,
            "byteOffset" : 526384
        }
    ],
    "buffers" : [
        {
            "byteLength" : 526984,
            "uri" : "MedievalHouse.bin"
        }
    ]
}
